<?xml version="1.0" standalone="no"?>
<!DOCTYPE svg PUBLIC "-//W3C//DTD SVG 20010904//EN"
 "http://www.w3.org/TR/2001/REC-SVG-20010904/DTD/svg10.dtd">
<svg version="1.0" xmlns="http://www.w3.org/2000/svg"
 width="182.000000pt" height="182.000000pt" viewBox="0 0 182.000000 182.000000"
 preserveAspectRatio="xMidYMid meet">
<metadata>
Created by potrace 1.11, written by Peter Selinger 2001-2013
</metadata>
<g transform="translate(0.000000,182.000000) scale(0.100000,-0.100000)"
fill="#000000" stroke="none">
<path d="M746 1804 c-355 -70 -624 -321 -717 -671 -29 -107 -33 -298 -9 -408
38 -175 115 -318 240 -445 91 -93 140 -130 238 -180 60 -30 202 -83 202 -75 0
3 12 0 28 -6 15 -6 81 -13 147 -15 276 -8 493 79 685 275 90 93 149 182 194
294 92 232 83 512 -25 731 -108 218 -291 383 -514 463 -131 47 -338 63 -469
37z"/>
</g>
</svg>
